<svg width="24.000000" height="24.000000" viewBox="0 0 24 24" fill="none" xmlns="http://www.w3.org/2000/svg" xmlns:xlink="http://www.w3.org/1999/xlink">
	<desc>
			Created with Pixso.
	</desc>
	<defs>
		<clipPath id="clip3_2873">
			<rect id="Calendar" rx="0.000000" width="23.000000" height="23.000000" transform="translate(0.500000 0.500000)" fill="white" fill-opacity="0"/>
		</clipPath>
	</defs>
	<g clip-path="url(#clip3_2873)">
		<path id="Vector" d="M8 4C7.73 4 7.48 4.1 7.29 4.29C7.1 4.48 7 4.73 7 5L7 6L6 6C5.46 6 4.96 6.21 4.58 6.58C4.21 6.96 4 7.46 4 8L4 18C4 18.53 4.21 19.03 4.58 19.41C4.96 19.78 5.46 20 6 20L18 20C18.53 20 19.03 19.78 19.41 19.41C19.78 19.03 20 18.53 20 18L20 8C20 7.46 19.78 6.96 19.41 6.58C19.03 6.21 18.53 6 18 6L17 6L17 5C17 4.73 16.89 4.48 16.7 4.29C16.51 4.1 16.26 4 16 4C15.73 4 15.48 4.1 15.29 4.29C15.1 4.48 15 4.73 15 5L15 6L9 6L9 5C9 4.73 8.89 4.48 8.7 4.29C8.51 4.1 8.26 4 8 4ZM8 9C7.73 9 7.48 9.1 7.29 9.29C7.1 9.48 7 9.73 7 10C7 10.26 7.1 10.51 7.29 10.7C7.48 10.89 7.73 11 8 11L16 11C16.26 11 16.51 10.89 16.7 10.7C16.89 10.51 17 10.26 17 10C17 9.73 16.89 9.48 16.7 9.29C16.51 9.1 16.26 9 16 9L8 9Z" fill="#B0BABF" fill-opacity="1.000000" fill-rule="evenodd"/>
	</g>
</svg>
